<svg xmlns="http://www.w3.org/2000/svg" style="display:none">
  <symbol id="i-rain" viewBox="0 0 24 24"><path fill="currentColor" d="M6 10a6 6 0 1 1 11.7 1.9A4.5 4.5 0 1 1 16 21H7a4 4 0 1 1-.7-7.9A6 6 0 0 1 6 10m3 10l2-4h-2l2-4m3 8l2-4h-2l2-4"/></symbol>
  <symbol id="i-sun" viewBox="0 0 24 24"><path fill="currentColor" d="M12 18a6 6 0 1 1 0-12a6 6 0 0 1 0 12m0-16h1v3h-2V2zm0 17h1v3h-2v-3zM2 11h3v2H2zm17 0h3v2h-3zM4.9 5.6l1.4-1.4l2.1 2.1L7 7.7zM16.6 17.3l1.4-1.4l2.1 2.1l-1.4 1.4zM4.2 18l2.1-2.1l1.4 1.4L5.6 19.4zM16.9 6.3L19 4.2l1.4 1.4l-2.1 2.1z"/></symbol>
  <symbol id="i-wind" viewBox="0 0 24 24"><path fill="currentColor" d="M3 8h10a2 2 0 1 0-2-2h2a4 4 0 1 1 0 8H3zm0 8h14a2 2 0 1 0-2-2h2a4 4 0 1 1 0 8H3z"/></symbol>
</svg>
